<?xml version="1.0" encoding="UTF-8"?>
<svg width="512" height="512" viewBox="0 0 512 512" fill="none" xmlns="http://www.w3.org/2000/svg">
  <path d="M256 512c141.385 0 256-114.615 256-256S397.385 0 256 0 0 114.615 0 256s114.615 256 256 256z" fill="#FFE922"/>
  <path d="M360.296 186.63c-2.64-6.6-6.6-12.54-11.88-17.82-5.28-5.28-11.22-9.24-17.82-11.88-6.93-2.97-14.52-4.29-22.44-4.29H184.096v206.58h124.08c7.92 0 15.51-1.32 22.44-4.29 6.6-2.64 12.54-6.6 17.82-11.88 5.28-5.28 9.24-11.22 11.88-17.82 2.97-6.93 4.29-14.52 4.29-22.44V209.07c0-7.92-1.32-15.51-4.29-22.44zm-52.14 115.17h-72.6V210.39h72.6v91.41z" fill="#1C1C1C"/>
</svg> 